<svg width="44" height="64" viewBox="0 0 44 64" fill="none" xmlns="http://www.w3.org/2000/svg">
<path d="M35.0035 0.273751C35.395 0.500692 35.6979 0.853679 35.8629 1.27504C36.0278 1.69641 36.0449 2.16125 35.9115 2.59362L28.7078 26.0003H41.9993C42.3899 26.0001 42.772 26.1144 43.0984 26.3289C43.4248 26.5434 43.6813 26.8488 43.8361 27.2074C43.991 27.566 44.0374 27.9621 43.9697 28.3468C43.902 28.7315 43.7232 29.0879 43.4552 29.3721L11.4564 63.3702C11.1468 63.6994 10.7348 63.9141 10.2875 63.9791C9.84028 64.0442 9.38418 63.9559 8.99355 63.7286C8.60293 63.5013 8.30082 63.1484 8.13647 62.7274C7.97211 62.3064 7.95521 61.8421 8.0885 61.4103L15.2922 37.9996H2.00073C1.61012 37.9998 1.22802 37.8855 0.901589 37.671C0.57516 37.4565 0.318695 37.1511 0.163852 36.7925C0.00901 36.4339 -0.0374304 36.0378 0.0302635 35.6531C0.0979575 35.2684 0.276822 34.912 0.544778 34.6278L32.5436 0.629731C32.8529 0.300946 33.2642 0.0864365 33.7108 0.02108C34.1575 -0.0442765 34.613 0.043364 35.0035 0.269752V0.273751Z" fill="white"/>
</svg>
