<svg width="57" height="57" viewBox="0 0 57 57" fill="none" xmlns="http://www.w3.org/2000/svg">
<g clip-path="url(#clip0_3515_552)">
<path d="M0 4.08262C0 1.82756 1.87387 0 4.18594 0H52.8141C55.1261 0 57 1.82756 57 4.08262V52.9174C57 55.1724 55.1261 57 52.8141 57H4.18594C1.87387 57 0 55.1724 0 52.9174V4.08262ZM17.6094 47.7161V21.9771H9.05587V47.7161H17.6094ZM13.3344 18.4609C16.3162 18.4609 18.1723 16.4872 18.1723 14.0149C18.1189 11.4891 16.3198 9.56888 13.3914 9.56888C10.4631 9.56888 8.55 11.4926 8.55 14.0149C8.55 16.4872 10.4061 18.4609 13.2774 18.4609H13.3344ZM30.8192 47.7161V33.3414C30.8192 32.5719 30.8762 31.8024 31.1042 31.2538C31.7205 29.7184 33.1277 28.1259 35.4932 28.1259C38.589 28.1259 39.8252 30.4843 39.8252 33.9471V47.7161H48.3787V32.9531C48.3787 25.0444 44.1608 21.3679 38.532 21.3679C33.9934 21.3679 31.9592 23.8616 30.8192 25.6179V25.707H30.7622L30.8192 25.6179V21.9771H22.2692C22.3761 24.3924 22.2692 47.7161 22.2692 47.7161H30.8192Z" fill="white"/>
</g>
<defs>
<clipPath id="clip0_3515_552">
<rect width="57" height="57" fill="white"/>
</clipPath>
</defs>
</svg>
